<?xml version="1.0" standalone="no"?>
<!DOCTYPE svg PUBLIC "-//W3C//DTD SVG 20010904//EN"
 "http://www.w3.org/TR/2001/REC-SVG-20010904/DTD/svg10.dtd">
<svg version="1.0" xmlns="http://www.w3.org/2000/svg"
 width="700.000000pt" height="700.000000pt" viewBox="0 0 700.000000 700.000000"
 preserveAspectRatio="xMidYMid meet">
<metadata>
Created by potrace 1.11, written by Peter Selinger 2001-2013
</metadata>
<g transform="translate(0.000000,700.000000) scale(0.100000,-0.100000)"
fill="#000000" stroke="none">
<path d="M1361 6979 c-49 -22 -98 -82 -108 -133 -5 -23 -9 -767 -8 -1653 0
-887 -2 -1612 -5 -1610 -40 24 -151 68 -205 83 -104 28 -312 26 -419 -4 -225
-64 -410 -211 -518 -412 -29 -54 -64 -142 -74 -185 -17 -74 -22 -129 -19 -225
4 -167 55 -311 155 -445 105 -141 246 -244 408 -299 91 -31 125 -37 257 -41
141 -4 234 18 370 85 248 124 420 360 453 623 5 38 8 804 8 1703 -1 900 0
1637 2 1639 2 2 29 -27 60 -63 212 -250 483 -495 868 -784 213 -161 302 -311
308 -521 7 -239 -126 -463 -335 -564 -97 -47 -146 -60 -255 -69 -110 -8 -166
-40 -206 -117 -44 -87 -12 -203 71 -262 39 -27 51 -30 129 -32 395 -9 787 262
940 648 52 131 67 217 66 384 -1 129 -5 164 -27 249 -34 125 -98 258 -175 361
-79 105 -114 137 -327 301 -99 75 -182 140 -185 143 -3 3 -32 28 -65 56 -97
80 -152 132 -290 270 -201 201 -270 288 -470 590 -84 127 -163 240 -176 252
-58 53 -152 66 -228 32z"/>
<path d="M6675 5308 c-180 -52 -1339 -384 -1410 -404 -44 -12 -262 -74 -485
-138 -223 -64 -493 -141 -600 -171 -338 -97 -357 -104 -395 -140 -71 -70 -66
45 -66 -1517 l0 -1407 -57 29 c-108 54 -202 74 -352 74 -110 0 -150 -4 -214
-22 -206 -59 -372 -182 -481 -357 -94 -150 -125 -267 -120 -455 3 -132 15
-198 50 -275 8 -17 19 -43 24 -59 20 -51 97 -160 152 -215 112 -111 230 -181
376 -223 62 -17 104 -22 203 -22 133 0 151 2 245 29 242 70 467 288 541 524
42 134 42 128 44 1475 0 709 3 1292 5 1294 4 4 319 99 355 107 15 3 269 76
1455 415 325 93 602 172 618 175 l27 7 0 -841 0 -841 -57 29 c-108 54 -196 75
-333 77 -132 2 -203 -9 -308 -48 -260 -97 -455 -324 -518 -603 -11 -51 -13
-237 -3 -300 38 -233 185 -446 394 -571 219 -132 516 -147 753 -39 248 114
423 341 470 610 4 22 7 862 7 1867 l0 1826 -30 44 c-60 86 -151 106 -290 66z"/>
</g>
</svg>
